#!OML:ASF F:\VICON\USERDATA\INSTALL\rory3\rory3.ASF
:FULLY-SPECIFIED
:DEGREES
19
root -0.5610179999999996 16.975000000000005 -8.050410000000008 0.7625929999999945 3.7147499999999996 0.7898980000000031
lfemur -3.8339799999999986 -3.670119999999997 -28.20629999999999
ltibia 42.5425
lfoot -26.18569999999996 4.125739999999989
ltoes -10.5147
rfemur -44.32829999999997 -7.129270000000011 19.582799999999985
rtibia 109.44599999999997
rfoot 12.238499999999988 2.005149999999989
rtoes 8.76297000000001
lowerback nan 0.3114869999999994 -4.004169999999995
upperback 0.533693000000004 -0.32387199999999816 0.9329939999999983
thorax -9.58361 0.05476219999999865 3.383659999999998
lowerneck -21.701200000000004 -4.15878 -1.239550000000001
upperneck 13.6994 -5.807090000000001 2.8903300000000005
head 7.8971 -2.5235100000000004 0.4159150000000001
lclavicle -3.9756899999999897e-16 -3.180550000000003e-15
lhumerus -35.01040000000004 -15.952699999999998 97.8181
lradius 110.03
lwrist 36.44
lhand -22.360999999999994 1.3115500000000004
lfingers nan
lthumb 4.06019 31.2526
rclavicle -3.9756899999999897e-16 -3.180550000000003e-15
rhumerus -57.02539999999999 10.416500000000003 -99.33
rradius 104.33299999999998
rwrist -10.399
rhand -16.211 nan
rfingers nan
rthumb 9.99662 10.0414
20
root -0.5566279999999997 17.014 -7.557500000000024 0.723980999999994 3.400680000000005 0.9356030000000053
lfemur -1.3842999999999783 -3.37202 -28.41979999999999
ltibia 41.29689999999999
lfoot -24.95949999999998 3.129870000000003
ltoes -11.834700000000002
rfemur -46.0094 -6.678749999999988 19.8398
rtibia 107.25600000000003
rfoot 10.301700000000011 3.2245699999999937
rtoes 5.386860000000005
lowerback nan 0.16226899999999977 -4.485299999999988
upperback 0.3911570000000004 -0.6223339999999984 1.1297399999999982
thorax -9.92865 -0.04692820000000064 3.962190000000004
lowerneck -21.3062 -3.88678 -1.35119
upperneck 13.4952 -5.394090000000001 2.85568
head 7.75651 -2.34523 0.48448399999999975
lclavicle -4.249020000000003e-15 1.4113700000000008e-14
lhumerus -33.871200000000044 -15.2634 97.8503
lradius 111.355
lwrist 37.49329999999999
lhand -23.4538 2.656870000000001
lfingers nan
lthumb 3.0048700000000013 32.6154
rclavicle -4.249020000000003e-15 1.4113700000000008e-14
rhumerus -58.15929999999999 10.647299999999996 -99.116
rradius 105.061
rwrist -11.060199999999998
rhand -16.2804 nan
rfingers nan
rthumb 9.92963 9.76642
21
root -0.5763232633255735 17.026721183939507 2.1477921850272033 1.198553564145262 4.201405631211975 0.8547875696743312
lfemur -1.1338471409046331 -4.526070723207281 -28.323840097794225
ltibia 36.44210707273204
lfoot -23.902520768984285 2.2903859615087088
ltoes -10.737919824968545
rfemur -44.21886352024926 -6.557508164122256 20.325827425069804
rtibia 109.31221250636318
rfoot 10.830597864137005 2.85590477044481
rtoes 6.855395866025738
lowerback nan 0.2140495232290559 -3.872528587395022
upperback -0.7632830798776882 -0.38503722127743356 1.163879367840872
thorax -11.457380039653291 0.0009532419937920977 3.535962546025422
lowerneck -18.230636759734047 -3.968662917868233 -1.5156382342303107
upperneck 12.86147786881434 -5.549265162760939 3.0334566317801563
head 7.241819682831191 -2.3694061445938637 0.6089020573727629
lclavicle 1.709106135644091e-14 -1.365871399318023e-14
lhumerus -38.251306642304364 -15.117310912057457 97.70488678128662
lradius 111.67795925130153
lwrist 37.23437780829846
lhand -23.430423545588752 2.8519682860906057
lfingers nan
lthumb 3.0372515090618095 32.85544008739939
rclavicle 1.702648045411999e-14 -1.4043784818307972e-14
rhumerus -59.48373969815016 11.230524329047169 -100.77080675898947
rradius 105.39022610803733
rwrist -9.932898874514429
rhand -17.800027091711524 nan
rfingers nan
rthumb 8.455699459999025 8.343019692087879
22
root -0.5913489163764953 17.050288159678917 2.1592694347917227 1.6299776730847517 4.539766050327609 0.6373916974283373
lfemur -0.7347114747805161 -5.531521824769521 -28.01836336343273
ltibia 32.08682261736722
lfoot -23.21867548767613 1.9803690628717954
ltoes -10.082631945570684
rfemur -43.45904296366692 -6.369555779041261 20.764415754667947
rtibia 111.72006630650014
rfoot 11.130686214882175 2.3103104410889967
rtoes 6.1968805215405
lowerback nan 0.3145985156760128 -3.326917121503642
upperback -1.043482756449642 -0.264454950724736 1.1906869021337214
thorax -11.607138312013348 0.14587470366720445 3.2326151193668853
lowerneck -17.85743060627015 -4.081095421753603 -1.5811453756536533
upperneck 12.657056524763316 -5.70066756678691 3.1629614082468462
head 7.132231542538985 -2.43568898893039 0.6515392342346443
lclavicle -2.6201743360260362e-14 -3.688368895673925e-14
lhumerus -40.60910272334238 -14.962081491087966 97.648315489677
lradius 111.84508217067575
lwrist 37.01861671407487
lhand -23.175855267657152 2.8403724070310092
lfingers nan
lthumb 3.2779461323727865 32.849845972483855
rclavicle -2.6147929980379847e-14 -3.7440632389131455e-14
rhumerus -59.8728009454187 11.731834013338226 -101.7275725862916
rradius 105.50983838106681
rwrist -8.280495628233197
rhand -17.996691235205102 nan
rfingers nan
rthumb 8.319368426704443 8.157334350310208
23
root -0.601642375778748 17.080771273046256 2.1752412510194867 2.043412892981889 4.567231265407303 0.2184165847761128
lfemur -0.38997780722349873 -6.237311423117365 -27.494645261485942
ltibia 28.336971379355823
lfoot -22.505856983493263 2.027102299048946
ltoes -9.736479798184382
rfemur -43.4483064701773 -6.196824981388468 21.278518792529354
rtibia 114.47805154829909
rfoot 11.322403144538383 1.6056547052985914
rtoes 5.88619642148631
lowerback nan 0.40664518732196653 -2.8510076390163452
upperback -0.7280001757064944 -0.1601010235294078 1.3271100406478662
thorax -10.809331362173014 0.29349208280094213 2.98133829290438
lowerneck -18.78886791207756 -4.266754177459978 -1.5450225913101447
upperneck 12.495548624281216 -5.956536411938838 3.205803806645694
head 7.2086269781163255 -2.4654082482766246 0.6320451458829439
lclavicle -2.0282753690940685e-15 2.954171568495883e-15
lhumerus -41.82008364659663 -14.881030860104726 97.67379756035307
lradius 111.86757471527002
lwrist 36.90789238703175
lhand -22.745588360518482 2.784585589182532
lfingers nan
lthumb 3.6537305527206954 32.75955917546618
rclavicle -1.2446283687548584e-15 3.4663981714203307e-15
rhumerus -59.63735566157939 12.053980219912907 -102.06133307005855
rradius 105.40828600880145
rwrist -7.625097698195571
rhand -17.26287993004431 nan
rfingers nan
rthumb 8.990202832577513 8.999833004781182
24
root -0.6068470643937036 17.11007044339605 1.9581201801455972 2.2537682516970436 4.633968704979179 0.25136661373518976
lfemur 0.1563537970076112 -6.933701451413815 -27.429952972911586
ltibia 25.352930842616626
lfoot -21.985742426992722 2.369723124445806
ltoes -6.074637027056998
rfemur -43.79708446151609 -6.367278344660161 21.261300443818797
rtibia 117.6267071924533
rfoot 10.804660758738311 0.5416531265317719
rtoes 6.987974904480786
lowerback nan 0.48367391640941076 -2.992504105437979
upperback -0.6246967767439437 -0.10035555794435735 1.3745035864614747
thorax -10.534013372002782 0.3651855666636585 3.108415428792817
lowerneck -18.35383603793452 -4.39156926848436 -1.4990252039318315
upperneck 11.748740684294143 -6.0756528809457455 3.2941731177321634
head 6.983008508448661 -2.524007821935855 0.6550793091715127
lclavicle 9.600705550747424e-15 -1.2627483377198742e-16
lhumerus -43.06493781089023 -14.982035741745113 97.94825844680882
lradius 112.00058333097799
lwrist 36.895499299655164
lhand -22.517766634625218 2.712995059942416
lfingers nan
lthumb 3.854269071854019 32.719215817042624
rclavicle 9.576192215650003e-15 -1.154242262921612e-16
rhumerus -59.722985890851675 12.112980372866605 -102.32246605231322
rradius 105.2383145369631
rwrist -7.54224125544096
rhand -16.33733033351402 nan
rfingers nan
rthumb 9.850784575248898 9.688828646265899
25
root -0.6060272589522477 17.137584144450162 2.08532612315265 2.431213627049823 4.674843872153922 0.5357226753437101
lfemur 0.7113770439061025 -7.344890421865934 -27.698628473660264
ltibia 23.034790248237748
lfoot -21.550159686326115 2.603799590771426
ltoes -4.347605261727409
rfemur -44.44806407392507 -6.77977663818056 20.82982102471926
rtibia 121.16659703632784
rfoot 10.957045880589856 -0.7168591147338637
rtoes 5.612107697198697
lowerback nan 0.514858274102671 -3.4328476915049175
upperback -0.9789447401331254 -0.1750567053797023 1.4029120131143433
thorax -10.972054041185329 0.3467024037924159 3.370966549370567
lowerneck -16.599297267351446 -4.319114078980641 -1.608855547464065
upperneck 10.80771413552832 -5.971169590875057 3.4338406696167447
head 6.604098212021301 -2.462422035087853 0.7511205813066416
lclavicle -2.143281592707541e-14 -2.2846204308217533e-14
lhumerus -44.630706840016074 -15.078321461138412 98.38738048186066
lradius 112.01804313336213
lwrist 36.917644271174545
lhand -22.592691460625648 2.4745132635086122
lfingers nan
lthumb 3.7866056427680803 32.494717069775916
rclavicle -2.185710969646135e-14 -2.262386923174352e-14
rhumerus -60.499155167202034 12.086597194032777 -103.05969760592875
rradius 104.96094415140489
rwrist -6.222654434628582
rhand -16.69403993551661 nan
rfingers nan
rthumb 9.527600782158869 9.102313282755635
26
root -0.6094146357988424 17.16108226107669 2.669763098765764 2.4584802367327807 4.433032765250867 0.7661301855759914
lfemur 1.6421050622164195 -7.114681817545377 -28.01596266059175
ltibia 21.369653058709066
lfoot -21.400907041571127 2.494217704954907
ltoes -4.511586962694678
rfemur -45.27449153879234 -7.085785025559463 20.390686187005514
rtibia 125.04839999644443
rfoot 10.928707307777643 -2.625990617483429
rtoes 3.1728728518426434
lowerback nan 0.7516285026330547 -3.624220376927251
upperback -0.19246099488041524 -0.005005635062203417 1.0681307518314649
thorax -9.91656785964257 0.4712425339173383 3.0943541361981213
lowerneck -18.898780640089893 -4.321199939747905 -1.2174608949220658
upperneck 10.82155772921708 -6.144086908385755 3.582637734595334
head 6.905101326009457 -2.4582223330337194 0.716108419632915
lclavicle -1.4349898663770837e-14 -2.0752443073876185e-14
lhumerus -44.270611174747614 -16.215258835965866 98.60662780730968
lradius 111.89462768437454
lwrist 37.00238815024016
lhand -23.192786282490854 2.617375614109058
lfingers nan
lthumb 3.2455545640122323 32.68768742195076
rclavicle -1.4289375358685862e-14 -2.0767940138380063e-14
rhumerus -59.745178784679965 11.40611992852192 -102.82562951934193
rradius 104.50419454214497
rwrist -5.188194027917431
rhand -17.017448221316183 nan
rfingers nan
rthumb 9.25394162263574 8.859678358876186
27
root -0.6130058010306809 17.18273421441293 3.696065986259084 2.4844289908367143 4.021718366131093 0.9047473850387893
lfemur 2.520959390485711 -6.665007022568432 -28.298424079304507
ltibia 20.342614972735475
lfoot -20.90285909270764 2.2133709257795102
ltoes -2.660899928193235
rfemur -46.23474287233229 -7.372034734346805 19.956546524220457
rtibia 129.16026179659295
rfoot 11.114087012675938 -4.115729776002562
rtoes 2.921000832337164
lowerback nan 0.908334273153855 -3.887894585946388
upperback 0.4043271500621348 0.14993923372361806 0.8766207400909158
thorax -9.065564448769168 0.5214980266282299 3.0533711056329613
lowerneck -20.25518693537383 -4.355380016614887 -1.2304189591383956
upperneck 10.69345386970982 -6.178018766555239 3.84376723265043
head 7.0703897628802 -2.4198455414239217 0.7794202577268856
lclavicle -6.647208995046944e-15 1.44299645213711e-14
lhumerus -44.02484288781859 -16.89937411953626 98.91374852589757
lradius 111.96227589325575
lwrist 37.13485889377797
lhand -22.99464879965206 2.3646185239010205
lfingers nan
lthumb 3.493503865252766 32.50908272690096
rclavicle -6.7661884364439956e-15 1.413539165279349e-14
rhumerus -59.282127425228424 11.192051362604948 -102.8692007716532
rradius 103.93293585671375
rwrist -5.716776841303998
rhand -16.781191635453087 nan
rfingers nan
rthumb 9.482044096471908 9.005118551913593
